<?xml version="1.0" encoding="UTF-8"?>
<svg id="Calque_1" xmlns="http://www.w3.org/2000/svg" version="1.1" viewBox="0 0 192.2 51.1">
  <!-- Generator: Adobe Illustrator 30.2.1, SVG Export Plug-In . SVG Version: 2.1.1 Build 1)  -->
  <defs>
    <style>
      .st0 {
        fill: #3c3c3c;
      }

      .st1 {
        isolation: isolate;
      }

      .st2 {
        fill: #ff5800;
      }
    </style>
  </defs>
  <g class="st1">
    <path class="st0" d="M35.2,41.2c-1.8,0-3.4-.2-4.8-.7-1.3-.5-2.5-1.2-3.4-2.3s-1.6-2.4-2-4-.7-3.6-.7-5.9.2-4.3.7-5.9c.4-1.6,1.1-2.9,1.9-3.9s1.9-1.7,3.1-2.2,2.6-.7,4.1-.7c3.3,0,5.7,1,7.2,2.9,1.6,2,2.4,5.2,2.4,9.6v1.9h-13.6c0,1.4.2,2.5.4,3.4.2.9.5,1.6.9,2,.4.5.9.8,1.5,1s1.3.3,2.2.3,2.3-.2,3.1-.6c.8-.4,1.7-.9,2.4-1.5l2.6,3.8c-1.1.9-2.2,1.6-3.5,2.1s-2.8.7-4.5.7ZM34.2,19.8c-.6,0-1.1.1-1.6.3s-.9.5-1.2,1-.6,1.1-.8,1.9c-.2.8-.3,1.8-.4,3.1h8c0-2.3-.3-3.9-.9-4.9-.6-.9-1.6-1.4-3.1-1.4Z"/>
    <path class="st0" d="M47.8,16.3h4.4l.6,2.5c.9-1,1.9-1.8,3-2.3,1.1-.6,2.2-.8,3.5-.8s2.3.2,3.3.6,1.9,1,2.6,2c.7.9,1.3,2.2,1.7,3.8.4,1.6.6,3.6.6,6s-.2,4.4-.5,6.1c-.3,1.7-.8,3-1.5,4.1-.7,1-1.5,1.8-2.6,2.2-1,.5-2.2.7-3.6.7s-2.5-.2-3.5-.7-1.8-1.1-2.5-1.7v11.3h-5.5s0-33.8,0-33.8ZM57.6,36.8c.8,0,1.4,0,2-.3.5-.2,1-.6,1.3-1.2.3-.6.6-1.4.7-2.5,0-1.1.2-2.5.2-4.3s0-3.1-.2-4.2-.3-1.9-.6-2.5-.7-1-1.2-1.2-1.1-.3-1.8-.3c-1,0-1.9.2-2.6.6s-1.4.9-2,1.6v12.6c.5.5,1.2.9,1.9,1.3.6.2,1.4.4,2.3.4Z"/>
  </g>
  <g class="st1">
    <path class="st0" d="M81.2,41.2c-1.8,0-3.4-.2-4.8-.7-1.3-.5-2.5-1.2-3.4-2.3s-1.6-2.4-2-4-.7-3.6-.7-5.9.2-4.3.7-5.9c.4-1.6,1.1-2.9,1.9-3.9s1.9-1.7,3.1-2.2,2.6-.7,4.1-.7c3.3,0,5.7,1,7.2,2.9,1.6,2,2.4,5.2,2.4,9.6v1.9h-13.5c0,1.4.2,2.5.4,3.4.2.9.5,1.6.9,2,.4.5.9.8,1.5,1s1.3.3,2.2.3,2.3-.2,3.1-.6,1.7-.9,2.4-1.5l2.6,3.8c-1.1.9-2.2,1.6-3.5,2.1s-2.8.7-4.6.7ZM80.2,19.8c-.6,0-1.1.1-1.6.3s-.9.5-1.2,1-.6,1.1-.8,1.9c-.2.8-.3,1.8-.4,3.1h8c0-2.3-.3-3.9-.9-4.9-.5-.9-1.6-1.4-3.1-1.4Z"/>
  </g>
  <g class="st1">
    <path class="st0" d="M98.5,27.4l-6.6-11.1h6.3l1.7,3.3c.5.9.9,1.7,1.1,2.4s.6,1.3.8,2h0c.2-.6.4-1.3.6-2s.6-1.5,1-2.4l1.5-3.3h6.1l-6.6,11,7.5,13.3h-6l-2.4-4.9c-.4-.9-.8-1.7-1.1-2.4-.3-.8-.6-1.4-.8-2h0c-.2.6-.5,1.2-.7,1.9-.3.7-.7,1.5-1.2,2.5l-2.5,4.9h-6.1l7.4-13.2Z"/>
  </g>
  <g class="st1">
    <path class="st2" d="M121.4,41.2c-1.8,0-3.5-.2-4.9-.7-1.5-.5-2.7-1.1-3.6-1.7l1.9-4.1c.9.6,1.9,1.1,2.9,1.5s2.1.5,3.2.5,2.4-.2,3-.7.8-1.2.8-2.2,0-1-.2-1.4c-.2-.4-.4-.7-.8-.9-.4-.3-.8-.5-1.4-.7s-1.3-.4-2.2-.7c-.9-.3-1.7-.6-2.4-1-.7-.4-1.4-.9-1.9-1.4-.5-.6-.9-1.3-1.2-2.1-.3-.8-.4-1.8-.4-3,0-2.1.7-3.8,2-5.1,1.3-1.3,3.3-1.9,6-1.9s2.9.1,4,.4,2.1.6,3.1,1.1l-1.5,4.2c-.9-.5-1.8-.8-2.6-1-.8-.2-1.6-.3-2.6-.3-2.1,0-3.1.8-3.1,2.4s0,.9.2,1.2c0,.3.3.6.6.8.3.2.7.4,1.2.6s1.1.4,1.9.6c.9.3,1.8.6,2.7.9.8.4,1.6.8,2.2,1.4s1.1,1.3,1.5,2.2c.4.9.5,2,.5,3.3-.2,5.3-3.1,7.8-8.9,7.8Z"/>
    <path class="st2" d="M134,16.3h4.4l.6,2.5c.9-1,1.9-1.8,3-2.3,1.1-.6,2.2-.8,3.5-.8s2.3.2,3.3.6,1.9,1,2.6,2c.7.9,1.3,2.2,1.7,3.8.4,1.6.6,3.6.6,6s-.2,4.4-.5,6.1c-.3,1.7-.8,3-1.5,4.1s-1.5,1.8-2.6,2.2c-1,.5-2.2.7-3.6.7s-2.5-.2-3.5-.7-1.8-1.1-2.5-1.7v11.3h-5.5V16.3ZM143.8,36.8c.8,0,1.4,0,2-.3.5-.2,1-.6,1.3-1.2.3-.6.6-1.4.7-2.5.1-1.1.2-2.5.2-4.3s-.1-3.1-.2-4.2-.3-1.9-.6-2.5-.7-1-1.2-1.2-1.1-.3-1.8-.3c-1,0-1.9.2-2.6.6s-1.4.9-2,1.6v12.6c.5.5,1.2.9,1.9,1.3.6.2,1.4.4,2.3.4Z"/>
    <path class="st2" d="M166.8,41.2c-1.6,0-3-.2-4.2-.7-1.3-.5-2.3-1.2-3.2-2.3s-1.6-2.4-2-4c-.5-1.6-.7-3.6-.7-5.9s.2-4.3.7-5.9c.5-1.6,1.1-2.9,2-3.9s2-1.8,3.2-2.2c1.3-.5,2.7-.7,4.2-.7s3,.2,4.2.7c1.3.5,2.3,1.2,3.2,2.3.9,1,1.6,2.3,2.1,4,.5,1.6.7,3.6.7,5.8s-.2,4.2-.7,5.8-1.2,2.9-2,4c-.9,1-2,1.8-3.2,2.3-1.3.5-2.7.7-4.3.7ZM166.8,37.1c.8,0,1.5,0,2-.4.5-.3,1-.7,1.4-1.4s.6-1.5.8-2.7c.2-1.1.2-2.5.2-4.3s-.1-3.2-.2-4.3c-.2-1.1-.4-2-.8-2.6-.4-.6-.8-1.1-1.4-1.3-.6-.2-1.2-.4-2.1-.4s-1.5.1-2,.4c-.5.2-1,.7-1.4,1.3-.4.7-.6,1.5-.8,2.7-.2,1.1-.2,2.5-.2,4.3s.1,3.1.2,4.2c.2,1.1.4,2,.8,2.6.4.7.8,1.1,1.4,1.4.7.4,1.3.5,2.1.5Z"/>
    <path class="st2" d="M179,16.3h2.6v-6.1l5.4-1.1v7.2h4.8v4.2h-4.8v14.1c0,.9.2,1.6.5,1.9.3.3.8.5,1.4.5s1,0,1.4-.2c.4,0,.7-.3,1-.4l.9,3.8c-.5.3-1.2.5-1.8.7-.7.2-1.5.3-2.4.3s-1.8,0-2.6-.3-1.5-.5-2-.9c-.6-.4-1-1-1.3-1.7s-.5-1.6-.5-2.7v-15.1h-2.6v-4.2Z"/>
  </g>
  <g>
    <polygon class="st2" points="7.3 28.5 0 16.5 8.7 16.5 16 28.5 7.3 28.5"/>
    <polygon class="st2" points="7.3 28.5 0 40.5 8.7 40.5 16 28.5 7.3 28.5"/>
  </g>
</svg>