<svg xmlns="http://www.w3.org/2000/svg" width="110" height="96" viewBox="0 0 110 96" fill="none">
            <g class="dots">
              <path fill-rule="evenodd" clip-rule="evenodd" d="M4.47727 5.57798C5.17616 5.57798 5.74601 5.00973 5.74601 4.31133C5.74601 3.61293 5.17616 3.0459 4.47727 3.0459C3.77837 3.0459 3.21094 3.61414 3.21094 4.31133C3.21094 5.00853 3.77958 5.57798 4.47727 5.57798Z" fill="#E6324B"></path>
              <path fill-rule="evenodd" clip-rule="evenodd" d="M13.7219 5.54478C14.4202 5.54478 14.9882 4.97653 14.9882 4.27813C14.9882 3.57973 14.4196 3.0127 13.7219 3.0127C13.0242 3.0127 12.4531 3.58094 12.4531 4.27813C12.4531 4.97533 13.023 5.54478 13.7219 5.54478Z" fill="#E6324B"></path>
              <path fill-rule="evenodd" clip-rule="evenodd" d="M22.9648 5.51255C23.6637 5.51255 24.2311 4.94431 24.2311 4.2447C24.2311 3.54509 23.6637 2.98047 22.9648 2.98047C22.2659 2.98047 21.6973 3.54871 21.6973 4.2447C21.6973 4.94069 22.2659 5.51255 22.9648 5.51255Z" fill="#E6324B"></path>
              <path fill-rule="evenodd" clip-rule="evenodd" d="M32.2089 5.47934C32.9078 5.47934 33.4753 4.9111 33.4753 4.2127C33.4753 3.5143 32.9078 2.94727 32.2089 2.94727C31.51 2.94727 30.9414 3.51551 30.9414 4.2127C30.9414 4.9099 31.51 5.47934 32.2089 5.47934Z" fill="#E6324B"></path>
              <path fill-rule="evenodd" clip-rule="evenodd" d="M4.47727 14.5623C5.17616 14.5623 5.74601 13.9941 5.74601 13.2957C5.74601 12.5973 5.17616 12.0303 4.47727 12.0303C3.77837 12.0303 3.21094 12.5985 3.21094 13.2957C3.21094 13.9929 3.77958 14.5623 4.47727 14.5623Z" fill="#E6324B"></path>
              <path fill-rule="evenodd" clip-rule="evenodd" d="M13.7219 14.5299C14.4202 14.5299 14.9882 13.9617 14.9882 13.2633C14.9882 12.5649 14.4196 11.999 13.7219 11.999C13.0242 11.999 12.4531 12.5673 12.4531 13.2633C12.4531 13.9592 13.023 14.5299 13.7219 14.5299Z" fill="#E6324B"></path>
              <path fill-rule="evenodd" clip-rule="evenodd" d="M22.9648 14.4979C23.6637 14.4979 24.2311 13.9297 24.2311 13.2301C24.2311 12.5304 23.6637 11.9658 22.9648 11.9658C22.2659 11.9658 21.6973 12.5341 21.6973 13.2301C21.6973 13.926 22.2659 14.4979 22.9648 14.4979Z" fill="#E6324B"></path>
              <path fill-rule="evenodd" clip-rule="evenodd" d="M4.47727 23.5477C5.17616 23.5477 5.74601 22.9795 5.74601 22.2799C5.74601 21.5802 5.17616 21.0156 4.47727 21.0156C3.77837 21.0156 3.21094 21.5839 3.21094 22.2799C3.21094 22.9758 3.77958 23.5477 4.47727 23.5477Z" fill="#E6324B"></path>
              <path fill-rule="evenodd" clip-rule="evenodd" d="M13.7219 23.5155C14.4202 23.5155 14.9882 22.9472 14.9882 22.2476C14.9882 21.548 14.4196 20.9834 13.7219 20.9834C13.0242 20.9834 12.4531 21.5516 12.4531 22.2476C12.4531 22.9436 13.023 23.5155 13.7219 23.5155Z" fill="#E6324B"></path>
              <path fill-rule="evenodd" clip-rule="evenodd" d="M4.47727 33.0592C5.17616 33.0592 5.74601 32.4922 5.74601 31.7938C5.74601 31.0954 5.17616 30.5283 4.47727 30.5283C3.77837 30.5283 3.21094 31.0966 3.21094 31.7938C3.21094 32.491 3.77958 33.0592 4.47727 33.0592Z" fill="#E6324B"></path>
              <path fill-rule="evenodd" clip-rule="evenodd" d="M41.6984 38.7588C40.5201 38.7588 39.5625 39.7169 39.5625 40.8956C39.5625 42.0742 40.5201 43.0287 41.6984 43.0287C42.8767 43.0287 43.8367 42.0706 43.8367 40.8956C43.8367 39.7205 42.8779 38.7588 41.6984 38.7588Z" fill="#E6324B"></path>
              <path fill-rule="evenodd" clip-rule="evenodd" d="M40.7533 9.01955C43.242 9.01955 45.2669 6.99606 45.2669 4.51038C45.2669 2.0247 43.242 0 40.7533 0C38.2647 0 36.2422 2.02349 36.2422 4.51038C36.2422 6.99726 38.2671 9.01955 40.7533 9.01955Z" fill="#E6324B"></path>
              <path fill-rule="evenodd" clip-rule="evenodd" d="M31.7565 9.01562C29.2697 9.01562 27.2441 11.0391 27.2441 13.5248C27.2441 16.0105 29.2703 18.0352 31.7565 18.0352C34.2427 18.0352 36.2701 16.0117 36.2701 13.5248C36.2701 11.0379 34.2451 9.01562 31.7565 9.01562Z" fill="#E6324B"></path>
              <path fill-rule="evenodd" clip-rule="evenodd" d="M27.2732 22.5404C27.2732 20.0541 25.2483 18.0312 22.7597 18.0312C20.271 18.0312 18.2461 20.0547 18.2461 22.5404C18.2461 25.0261 20.271 27.0496 22.7597 27.0496C25.2483 27.0496 27.2732 25.0261 27.2732 22.5404Z" fill="#E6324B"></path>
              <path fill-rule="evenodd" clip-rule="evenodd" d="M18.2732 31.556C18.2732 29.071 16.2483 27.0469 13.7597 27.0469C11.271 27.0469 9.24609 29.0716 9.24609 31.556C9.24609 34.0405 11.271 36.0652 13.7597 36.0652C16.2483 36.0652 18.2732 34.0417 18.2732 31.556Z" fill="#E6324B"></path>
              <path fill-rule="evenodd" clip-rule="evenodd" d="M4.76235 36.0615C2.27432 36.0615 0.25 38.0862 0.25 40.5707C0.25 43.0552 2.27492 45.0811 4.76235 45.0811C7.24979 45.0811 9.27592 43.0576 9.27592 40.5707C9.27592 38.0838 7.251 36.0615 4.76235 36.0615Z" fill="#E6324B"></path>
              <path fill-rule="evenodd" clip-rule="evenodd" d="M41.2073 10.5645C39.1003 10.5645 37.3848 12.2776 37.3848 14.3843C37.3848 16.4909 39.1003 18.2041 41.2073 18.2041C43.3142 18.2041 45.031 16.4897 45.031 14.3843C45.031 12.2788 43.3142 10.5645 41.2073 10.5645Z" fill="#E6324B"></path>
              <path fill-rule="evenodd" clip-rule="evenodd" d="M32.4307 19.3789C30.3237 19.3789 28.6094 21.0909 28.6094 23.1975C28.6094 25.3042 30.3237 27.0185 32.4307 27.0185C34.5376 27.0185 36.2544 25.3042 36.2544 23.1975C36.2544 21.0909 34.5388 19.3789 32.4307 19.3789Z" fill="#E6324B"></path>
              <path fill-rule="evenodd" clip-rule="evenodd" d="M27.4771 32.0132C27.4771 29.9077 25.7615 28.1934 23.6533 28.1934C21.5452 28.1934 19.832 29.9077 19.832 32.0132C19.832 34.1186 21.5464 35.8342 23.6533 35.8342C25.7603 35.8342 27.4771 34.1186 27.4771 32.0132Z" fill="#E6324B"></path>
              <path fill-rule="evenodd" clip-rule="evenodd" d="M14.8772 37.0078C12.7703 37.0078 11.0547 38.721 11.0547 40.8276C11.0547 42.9343 12.7703 44.6474 14.8772 44.6474C16.9841 44.6474 18.7009 42.9343 18.7009 40.8276C18.7009 38.721 16.9841 37.0078 14.8772 37.0078Z" fill="#E6324B"></path>
              <path fill-rule="evenodd" clip-rule="evenodd" d="M41.325 20.4092C39.4913 20.4092 38 21.9006 38 23.7331C38 25.5655 39.4913 27.0545 41.325 27.0545C43.1588 27.0545 44.65 25.5643 44.65 23.7331C44.65 21.9018 43.1588 20.4092 41.325 20.4092Z" fill="#E6324B"></path>
              <path fill-rule="evenodd" clip-rule="evenodd" d="M32.8485 29.0332C31.0147 29.0332 29.5234 30.5234 29.5234 32.3559C29.5234 34.1884 31.0147 35.6786 32.8485 35.6786C34.6822 35.6786 36.1735 34.1871 36.1735 32.3559C36.1735 30.5246 34.6822 29.0332 32.8485 29.0332Z" fill="#E6324B"></path>
              <path fill-rule="evenodd" clip-rule="evenodd" d="M24.3746 37.6572C22.542 37.6572 21.0508 39.1486 21.0508 40.9799C21.0508 42.8112 22.542 44.3026 24.3746 44.3026C26.2072 44.3026 27.7008 42.8112 27.7008 40.9799C27.7008 39.1486 26.2084 37.6572 24.3746 37.6572Z" fill="#E6324B"></path>
              <path fill-rule="evenodd" clip-rule="evenodd" d="M41.597 29.8398C40.0907 29.8398 38.8672 31.0649 38.8672 32.569C38.8672 34.073 40.0907 35.2981 41.597 35.2981C43.1034 35.2981 44.3281 34.073 44.3281 32.569C44.3281 31.0649 43.1046 29.8398 41.597 29.8398Z" fill="#E6324B"></path>
              <path fill-rule="evenodd" clip-rule="evenodd" d="M33.4173 38.0879C31.911 38.0879 30.6875 39.313 30.6875 40.817C30.6875 42.3211 31.911 43.5461 33.4173 43.5461C34.9237 43.5461 36.1484 42.3211 36.1484 40.817C36.1484 39.313 34.9237 38.0879 33.4173 38.0879Z" fill="#E6324B"></path>
            </g>
          <g class="hupx-branding-logo-text">
            <g class="big-letters">
              <path fill-rule="evenodd" clip-rule="evenodd" d="M4.24462 23.6033C2.94633 23.0489 1.9194 22.2505 1.16502 21.208C0.41005 20.1655 0.0217085 18.9345 0 17.5148H4.99417C5.0605 18.4687 5.39879 19.2231 6.00964 19.7769C6.61989 20.3319 7.45808 20.6085 8.52361 20.6085C9.58914 20.6085 10.4653 20.3481 11.087 19.8269C11.7081 19.3063 12.0193 18.6241 12.0193 17.7811C12.0193 17.0935 11.8082 16.5283 11.3867 16.0842C10.9646 15.6407 10.4376 15.2912 9.80562 15.0363C9.17306 14.7814 8.3017 14.4988 7.19216 14.1879C5.68281 13.7444 4.45628 13.3063 3.51316 12.8736C2.56945 12.441 1.7596 11.7871 1.08302 10.9104C0.40583 10.0342 0.0675392 8.86459 0.0675392 7.4003C0.0675392 6.02519 0.411257 4.82785 1.0999 3.80706C1.78734 2.78688 2.75337 2.00532 3.99618 1.46179C5.23899 0.918254 6.65969 0.646484 8.25768 0.646484C10.6547 0.646484 12.6024 1.22858 14.1009 2.39339C15.5994 3.55819 16.4255 5.18277 16.5811 7.26773H11.4537C11.409 6.4693 11.0707 5.80947 10.4382 5.28823C9.80562 4.76759 8.96743 4.50667 7.92421 4.50667C7.01366 4.50667 6.28703 4.73987 5.74371 5.20567C5.19979 5.67148 4.92783 6.34818 4.92783 7.23519C4.92783 7.85646 5.13286 8.37228 5.54351 8.78204C5.95417 9.193 6.46432 9.52563 7.07517 9.78053C7.68542 10.0354 8.54532 10.3295 9.65547 10.6621C11.1648 11.1062 12.3968 11.5491 13.3513 11.9926C14.3053 12.4367 15.1266 13.102 15.8153 13.989C16.5033 14.8766 16.8476 16.0408 16.8476 17.4822C16.8476 18.7248 16.5256 19.8781 15.8822 20.9423C15.2382 22.0071 14.2951 22.8555 13.0522 23.4876C11.8088 24.1197 10.3333 24.4361 8.62432 24.4361C7.00401 24.4361 5.54472 24.1589 4.24583 23.6045L4.24462 23.6033Z" fill="#1269A9"></path>
              <path fill-rule="evenodd" clip-rule="evenodd" d="M24.9894 4.73861V10.5608H32.8135V14.2535H24.9894V20.4083H33.8121V24.201H20.3281V0.945312H33.8121V4.73801H24.9894V4.73861Z" fill="#1269A9"></path>
              <path fill-rule="evenodd" clip-rule="evenodd" d="M42.2277 4.73861V10.5608H50.0518V14.2535H42.2277V20.4083H51.0504V24.201H37.5664V0.945312H51.0504V4.73801H42.2277V4.73861Z" fill="#1269A9"></path>
              <path fill-rule="evenodd" clip-rule="evenodd" d="M70.8709 11.6592C70.2824 12.7462 69.361 13.6224 68.1079 14.2877C66.8537 14.9529 65.272 15.2856 63.3634 15.2856H59.4679V24.2021H54.8066V0.979492H63.3634C65.161 0.979492 66.6927 1.29043 67.9578 1.91109C69.2229 2.53236 70.172 3.38623 70.8046 4.4727C71.4372 5.55977 71.7538 6.79086 71.7538 8.16597C71.7538 9.40851 71.4595 10.5727 70.8715 11.6592H70.8709ZM66.0269 10.6444C66.648 10.0569 66.9592 9.23014 66.9592 8.16597C66.9592 5.90325 65.6941 4.77218 63.1638 4.77218H59.4679V11.526H63.1638C64.4506 11.526 65.4052 11.2325 66.0269 10.6444Z" fill="#1269A9"></path>
              <path fill-rule="evenodd" clip-rule="evenodd" d="M78.7101 4.73861V10.5608H86.5342V14.2535H78.7101V20.4083H87.5328V24.201H74.0488V0.945312H87.5328V4.73801H78.7101V4.73861Z" fill="#1269A9"></path>
              <path fill-rule="evenodd" clip-rule="evenodd" d="M104.592 24.2017L99.5644 16.3831L95.0031 24.2017H89.7431L97.0679 12.4904L89.6436 0.978516H95.0038L100.031 8.76396L104.559 0.978516H109.82L102.528 12.6567L109.952 24.2017H104.592H104.592Z" fill="#1269A9"></path>
            </g>
            <g class="small-letters">
              <path fill-rule="evenodd" clip-rule="evenodd" d="M3.87643 3.90827C3.53874 4.22342 3.03161 4.38069 2.35563 4.38069H1.14417V6.93928H0.542969V0.9375H2.35563C3.02558 0.9375 3.53151 1.09478 3.87221 1.40994C4.21291 1.72509 4.38357 2.14268 4.38357 2.66332C4.38357 3.18395 4.21472 3.59371 3.87643 3.90827ZM3.76488 2.66332C3.76488 2.26259 3.65332 1.95949 3.4296 1.75341C3.20588 1.54732 2.84829 1.44428 2.35563 1.44428H1.14417V3.86548H2.35563C3.29513 3.86548 3.76488 3.46476 3.76488 2.66332Z" fill="#A0AAAF"></path>
              <path fill-rule="evenodd" clip-rule="evenodd" d="M8.136 5.51456H5.40374L4.87972 6.93968H4.24414L6.43489 1.01562H7.11388L9.29619 6.93968H8.66062L8.1366 5.51456H8.136ZM7.95569 5.01682L6.77017 1.77127L5.58464 5.01682H7.9563H7.95569Z" fill="#A0AAAF"></path>
              <path fill-rule="evenodd" clip-rule="evenodd" d="M13.2604 6.93929L11.774 4.43252H10.6657V6.93929H10.0645V0.9375H11.8687C12.5392 0.9375 13.047 1.09779 13.3937 1.41836C13.7404 1.73894 13.9135 2.15955 13.9135 2.68019C13.9135 3.11526 13.7893 3.48585 13.5396 3.79196C13.29 4.09808 12.9221 4.29693 12.4355 4.38853L13.9822 6.93869H13.2604V6.93929ZM10.6663 3.94321H11.8777C12.3475 3.94321 12.7008 3.82873 12.9384 3.59974C13.176 3.37076 13.2948 3.06464 13.2948 2.68079C13.2948 2.29694 13.1802 1.98118 12.9511 1.76666C12.7219 1.55214 12.3607 1.44488 11.8681 1.44488H10.6651V3.94321H10.6663Z" fill="#A0AAAF"></path>
              <path fill-rule="evenodd" clip-rule="evenodd" d="M18.3162 0.938477V1.43622H16.6494V6.93967H16.0482V1.43622H14.373V0.938477H18.3168H18.3162Z" fill="#A0AAAF"></path>
              <path fill-rule="evenodd" clip-rule="evenodd" d="M22.8101 6.60917C22.3579 6.34886 22.0009 5.9855 21.7404 5.51909C21.4799 5.05269 21.3496 4.52422 21.3496 3.93488C21.3496 3.34555 21.4799 2.81709 21.7404 2.35068C22.0009 1.88428 22.3572 1.52091 22.8101 1.26059C23.2624 1.00028 23.7665 0.870117 24.3225 0.870117C24.8785 0.870117 25.391 1.00028 25.8433 1.26059C26.2955 1.52091 26.6507 1.88428 26.9088 2.35068C27.1663 2.81709 27.2953 3.34555 27.2953 3.93488C27.2953 4.52422 27.1663 5.05269 26.9088 5.51909C26.6507 5.9855 26.2955 6.34886 25.8433 6.60917C25.391 6.86949 24.8839 6.99966 24.3225 6.99966C23.7611 6.99966 23.263 6.86949 22.8101 6.60917ZM25.5255 6.16688C25.8807 5.96079 26.1611 5.66432 26.3673 5.27806C26.5735 4.8918 26.6766 4.44407 26.6766 3.93428C26.6766 3.42449 26.5735 2.97858 26.3673 2.59473C26.1611 2.21148 25.8807 1.91622 25.5255 1.71073C25.1703 1.50465 24.7693 1.4016 24.3225 1.4016C23.8756 1.4016 23.4746 1.50465 23.1195 1.71073C22.7643 1.91682 22.4839 2.21148 22.277 2.59473C22.0708 2.97858 21.9677 3.42449 21.9677 3.93428C21.9677 4.44407 22.0708 4.8918 22.277 5.27806C22.4833 5.66432 22.7637 5.96079 23.1195 6.16688C23.4746 6.37296 23.8756 6.476 24.3225 6.476C24.7693 6.476 25.1703 6.37296 25.5255 6.16688Z" fill="#A0AAAF"></path>
              <path fill-rule="evenodd" clip-rule="evenodd" d="M31.5441 0.938103V1.43584H28.8981V3.67687H31.1323V4.17461H28.8981V6.93929H28.2969V0.9375H31.5447L31.5441 0.938103Z" fill="#A0AAAF"></path>
              <path fill-rule="evenodd" clip-rule="evenodd" d="M38.3645 5.51456H35.6323L35.1082 6.93968H34.4727L36.6634 1.01562H37.3424L39.5247 6.93968H38.8891L38.3651 5.51456H38.3645ZM38.1842 5.01682L36.9987 1.77127L35.8132 5.01682H38.1848H38.1842Z" fill="#A0AAAF"></path>
              <path fill-rule="evenodd" clip-rule="evenodd" d="M43.7808 1.29845C44.256 1.53888 44.6196 1.88537 44.8717 2.33731C45.1237 2.78925 45.2498 3.32737 45.2498 3.95165C45.2498 4.57593 45.1237 5.10381 44.8717 5.55273C44.6196 6.00227 44.256 6.34574 43.7808 6.58316C43.305 6.82058 42.7352 6.93929 42.0713 6.93929H40.293V0.9375H42.0713C42.7358 0.9375 43.3056 1.05802 43.7808 1.29845ZM43.9828 5.78473C44.4212 5.34665 44.6401 4.73622 44.6401 3.95165C44.6401 3.16708 44.4212 2.54521 43.9828 2.1011C43.5444 1.6576 42.907 1.43584 42.0713 1.43584H40.8942V6.44155H42.0713C42.9076 6.44155 43.545 6.22281 43.9828 5.78473Z" fill="#A0AAAF"></path>
              <path fill-rule="evenodd" clip-rule="evenodd" d="M46.8577 1.42705V3.66809H49.1347V4.16582H46.8577V6.4412H49.3921V6.93894H46.2559V0.928711H49.3921V1.42645H46.8577V1.42705Z" fill="#A0AAAF"></path>
              <path fill-rule="evenodd" clip-rule="evenodd" d="M52.6128 3.94359L54.4345 6.94026H53.7645L52.2353 4.43349L50.7832 6.94026H50.1133L51.9259 3.91768L50.1133 0.938477H50.7832L52.304 3.43682L53.7736 0.938477H54.4435L52.6134 3.94359H52.6128Z" fill="#A0AAAF"></path>
              <path fill-rule="evenodd" clip-rule="evenodd" d="M62.5516 2.68896C62.3797 2.29427 62.1174 1.98333 61.7653 1.75736C61.4131 1.53139 60.9988 1.4181 60.5236 1.4181C60.0768 1.4181 59.6758 1.52114 59.3206 1.72723C58.9655 1.93331 58.6851 2.22678 58.4788 2.60701C58.2726 2.98785 58.1695 3.43014 58.1695 3.93391C58.1695 4.43767 58.2726 4.88118 58.4788 5.26443C58.6851 5.64768 58.9655 5.94294 59.3206 6.14842C59.6758 6.35451 60.0768 6.45755 60.5236 6.45755C60.9415 6.45755 61.3184 6.36716 61.6537 6.18699C61.989 6.00681 62.2579 5.74891 62.4611 5.41447C62.6643 5.07943 62.7801 4.68896 62.8091 4.24244H60.283V3.75313H63.4446V4.19121C63.4163 4.71788 63.2728 5.19453 63.0153 5.62056C62.7578 6.04719 62.4123 6.38344 61.9799 6.62929C61.5476 6.87575 61.0615 6.99868 60.5236 6.99868C59.9857 6.99868 59.4641 6.86852 59.0113 6.6082C58.559 6.34788 58.202 5.98452 57.9415 5.51812C57.681 5.05171 57.5508 4.52324 57.5508 3.93391C57.5508 3.34458 57.681 2.81611 57.9415 2.34971C58.202 1.8833 58.5584 1.51994 59.0113 1.25962C59.4635 0.999306 59.9677 0.869141 60.5236 0.869141C61.1652 0.869141 61.7267 1.02944 62.2079 1.35001C62.6891 1.67059 63.0382 2.11711 63.2559 2.68957H62.5516V2.68896Z" fill="#A0AAAF"></path>
              <path fill-rule="evenodd" clip-rule="evenodd" d="M67.6263 6.93929L66.1398 4.43252H65.0315V6.93929H64.4297V0.9375H66.2339C66.9039 0.9375 67.4122 1.09779 67.7589 1.41836C68.1051 1.73894 68.2787 2.15955 68.2787 2.68019C68.2787 3.11526 68.1539 3.48585 67.9049 3.79196C67.6558 4.09808 67.288 4.29693 66.8007 4.38853L68.3475 6.93869H67.6257L67.6263 6.93929ZM65.0315 3.94321H66.243C66.7127 3.94321 67.0667 3.82873 67.3043 3.59974C67.5418 3.37076 67.6606 3.06464 67.6606 2.68079C67.6606 2.29694 67.5461 1.98118 67.3169 1.76666C67.0878 1.55214 66.7272 1.44488 66.2345 1.44488H65.0315V3.94321Z" fill="#A0AAAF"></path>
              <path fill-rule="evenodd" clip-rule="evenodd" d="M70.4371 6.60917C69.9848 6.34886 69.6278 5.9855 69.3673 5.51909C69.1068 5.05269 68.9766 4.52422 68.9766 3.93488C68.9766 3.34555 69.1068 2.81709 69.3673 2.35068C69.6278 1.88428 69.9842 1.52091 70.4371 1.26059C70.8893 1.00028 71.3934 0.870117 71.9494 0.870117C72.5054 0.870117 73.0174 1.00028 73.4702 1.26059C73.9225 1.52091 74.2777 1.88428 74.5358 2.35068C74.7932 2.81709 74.9223 3.34555 74.9223 3.93488C74.9223 4.52422 74.7932 5.05269 74.5358 5.51909C74.2783 5.9855 73.9231 6.34886 73.4702 6.60917C73.018 6.86949 72.5108 6.99966 71.9494 6.99966C71.388 6.99966 70.8899 6.86949 70.4371 6.60917ZM73.1524 6.16688C73.5076 5.96079 73.788 5.66432 73.9942 5.27806C74.2005 4.8918 74.3036 4.44407 74.3036 3.93428C74.3036 3.42449 74.2005 2.97858 73.9942 2.59473C73.788 2.21148 73.507 1.91622 73.1524 1.71073C72.7973 1.50465 72.3963 1.4016 71.9494 1.4016C71.5026 1.4016 71.1016 1.50465 70.7464 1.71073C70.3912 1.91682 70.1108 2.21148 69.9046 2.59473C69.6984 2.97858 69.5953 3.42449 69.5953 3.93428C69.5953 4.44407 69.6984 4.8918 69.9046 5.27806C70.1108 5.66432 70.3912 5.96079 70.7464 6.16688C71.1016 6.37296 71.5026 6.476 71.9494 6.476C72.3963 6.476 72.7973 6.37296 73.1524 6.16688Z" fill="#A0AAAF"></path>
              <path fill-rule="evenodd" clip-rule="evenodd" d="M76.4768 0.938477V4.71611C76.4768 5.31147 76.6185 5.75196 76.9019 6.03819C77.1854 6.32442 77.5737 6.46723 78.0664 6.46723C78.559 6.46723 78.9437 6.32563 79.2217 6.04241C79.4991 5.75919 79.6384 5.31689 79.6384 4.71611V0.938477H80.2396V4.70767C80.2396 5.46874 80.0376 6.0412 79.6342 6.42505C79.2302 6.8083 78.7049 7.00052 78.0573 7.00052C77.4097 7.00052 76.8844 6.8089 76.4804 6.42505C76.0764 6.04181 75.875 5.46935 75.875 4.70767V0.938477H76.4762H76.4768Z" fill="#A0AAAF"></path>
              <path fill-rule="evenodd" clip-rule="evenodd" d="M84.8399 3.90924C84.5016 4.2244 83.9951 4.38167 83.3191 4.38167H82.1077V6.94026H81.5059V0.938477H83.3185C83.9885 0.938477 84.4944 1.09576 84.8351 1.41091C85.1758 1.72546 85.3465 2.14366 85.3465 2.66429C85.3465 3.18493 85.1776 3.59469 84.8393 3.90924H84.8399ZM84.7278 2.66429C84.7278 2.26357 84.6162 1.96047 84.3925 1.75438C84.1694 1.5483 83.8112 1.44526 83.3185 1.44526H82.1071V3.86646H83.3185C84.258 3.86646 84.7278 3.46574 84.7278 2.66429Z" fill="#A0AAAF"></path>
            </g>
          </g>
          </svg>